<svg width="244" height="90" viewBox="0 0 244 90" fill="none" xmlns="http://www.w3.org/2000/svg">
<path d="M112.654 67.3282C112.726 67.3282 112.79 67.3561 112.846 67.412L113.369 67.9788C113.079 68.337 112.723 68.6114 112.299 68.802C111.878 68.9926 111.372 69.0879 110.781 69.0879C110.252 69.0879 109.775 68.9976 109.351 68.8168C108.931 68.6361 108.571 68.3847 108.272 68.0626C107.973 67.7406 107.743 67.3561 107.582 66.9092C107.424 66.4623 107.345 65.9743 107.345 65.4452C107.345 64.9095 107.43 64.4199 107.601 63.9763C107.772 63.5293 108.012 63.1448 108.321 62.8228C108.633 62.5008 109.005 62.251 109.435 62.0735C109.866 61.8928 110.342 61.8024 110.865 61.8024C111.384 61.8024 111.844 61.8879 112.245 62.0588C112.649 62.2296 112.992 62.4531 113.275 62.7291L112.831 63.3453C112.805 63.3847 112.771 63.4192 112.728 63.4488C112.688 63.4784 112.633 63.4932 112.56 63.4932C112.511 63.4932 112.46 63.48 112.407 63.4538C112.355 63.4242 112.297 63.3897 112.235 63.3502C112.172 63.3075 112.1 63.2615 112.018 63.2122C111.936 63.1629 111.841 63.1186 111.732 63.0791C111.624 63.0364 111.497 63.0019 111.353 62.9756C111.211 62.946 111.047 62.9312 110.86 62.9312C110.541 62.9312 110.248 62.9888 109.982 63.1038C109.719 63.2155 109.493 63.3798 109.302 63.5967C109.111 63.8103 108.964 64.0732 108.858 64.3854C108.753 64.6943 108.701 65.0476 108.701 65.4452C108.701 65.8461 108.756 66.2027 108.868 66.5148C108.983 66.827 109.138 67.0899 109.332 67.3035C109.525 67.5171 109.754 67.6814 110.017 67.7965C110.28 67.9082 110.562 67.9641 110.865 67.9641C111.045 67.9641 111.208 67.9542 111.353 67.9345C111.5 67.9148 111.635 67.8835 111.757 67.8408C111.882 67.7981 111.998 67.7439 112.107 67.6782C112.218 67.6091 112.329 67.5253 112.437 67.4268C112.47 67.3972 112.504 67.3742 112.541 67.3577C112.577 67.338 112.614 67.3282 112.654 67.3282Z" fill="#004377"/>
<path d="M116.611 63.8727C116.986 63.8727 117.326 63.9335 117.631 64.0551C117.94 64.1767 118.203 64.3492 118.42 64.5727C118.64 64.7962 118.81 65.0689 118.928 65.391C119.046 65.713 119.105 66.0728 119.105 66.4705C119.105 66.8714 119.046 67.2329 118.928 67.5549C118.81 67.877 118.64 68.1514 118.42 68.3781C118.203 68.6049 117.94 68.779 117.631 68.9006C117.326 69.0222 116.986 69.083 116.611 69.083C116.233 69.083 115.89 69.0222 115.581 68.9006C115.272 68.779 115.007 68.6049 114.787 68.3781C114.57 68.1514 114.401 67.877 114.279 67.5549C114.161 67.2329 114.102 66.8714 114.102 66.4705C114.102 66.0728 114.161 65.713 114.279 65.391C114.401 65.0689 114.57 64.7962 114.787 64.5727C115.007 64.3492 115.272 64.1767 115.581 64.0551C115.89 63.9335 116.233 63.8727 116.611 63.8727ZM116.611 68.1464C117.032 68.1464 117.342 68.0051 117.543 67.7225C117.746 67.4399 117.848 67.0258 117.848 66.4803C117.848 65.9348 117.746 65.5191 117.543 65.2332C117.342 64.9473 117.032 64.8044 116.611 64.8044C116.184 64.8044 115.867 64.949 115.66 65.2382C115.456 65.5241 115.354 65.9381 115.354 66.4803C115.354 67.0226 115.456 67.4366 115.66 67.7225C115.867 68.0051 116.184 68.1464 116.611 68.1464Z" fill="#004377"/>
<path d="M120.428 69.0091V63.9516H121.173C121.331 63.9516 121.434 64.0255 121.483 64.1734L121.562 64.5481C121.651 64.4495 121.743 64.3591 121.838 64.2769C121.937 64.1948 122.04 64.1241 122.149 64.065C122.261 64.0058 122.379 63.9598 122.504 63.927C122.632 63.8908 122.772 63.8727 122.923 63.8727C123.241 63.8727 123.503 63.9598 123.706 64.134C123.913 64.3049 124.068 64.5333 124.17 64.8192C124.249 64.6516 124.347 64.5086 124.466 64.3903C124.584 64.2687 124.714 64.1701 124.855 64.0946C124.996 64.019 125.146 63.9631 125.304 63.927C125.465 63.8908 125.626 63.8727 125.787 63.8727C126.066 63.8727 126.314 63.9155 126.531 64.0009C126.748 64.0863 126.93 64.2112 127.078 64.3755C127.226 64.5398 127.338 64.7403 127.413 64.9769C127.492 65.2135 127.532 65.4846 127.532 65.7902V69.0091H126.314V65.7902C126.314 65.4682 126.243 65.2267 126.102 65.0656C125.961 64.9013 125.754 64.8192 125.481 64.8192C125.356 64.8192 125.239 64.8405 125.131 64.8832C125.026 64.926 124.932 64.9884 124.85 65.0706C124.771 65.1494 124.709 65.2497 124.663 65.3712C124.617 65.4928 124.594 65.6325 124.594 65.7902V69.0091H123.371V65.7902C123.371 65.4518 123.302 65.2053 123.164 65.0508C123.029 64.8964 122.831 64.8192 122.568 64.8192C122.39 64.8192 122.224 64.8635 122.07 64.9523C121.919 65.0377 121.777 65.156 121.646 65.3072V69.0091H120.428Z" fill="#004377"/>
<path d="M129.083 69.0091V63.9516H129.828C129.985 63.9516 130.089 64.0255 130.138 64.1734L130.217 64.5481C130.306 64.4495 130.398 64.3591 130.493 64.2769C130.592 64.1948 130.695 64.1241 130.804 64.065C130.915 64.0058 131.034 63.9598 131.158 63.927C131.287 63.8908 131.426 63.8727 131.577 63.8727C131.896 63.8727 132.157 63.9598 132.361 64.134C132.568 64.3049 132.723 64.5333 132.825 64.8192C132.903 64.6516 133.002 64.5086 133.12 64.3903C133.239 64.2687 133.368 64.1701 133.51 64.0946C133.651 64.019 133.801 63.9631 133.958 63.927C134.119 63.8908 134.28 63.8727 134.441 63.8727C134.721 63.8727 134.969 63.9155 135.186 64.0009C135.403 64.0863 135.585 64.2112 135.733 64.3755C135.881 64.5398 135.992 64.7403 136.068 64.9769C136.147 65.2135 136.186 65.4846 136.186 65.7902V69.0091H134.969V65.7902C134.969 65.4682 134.898 65.2267 134.757 65.0656C134.616 64.9013 134.409 64.8192 134.136 64.8192C134.011 64.8192 133.894 64.8405 133.786 64.8832C133.681 64.926 133.587 64.9884 133.505 65.0706C133.426 65.1494 133.364 65.2497 133.317 65.3712C133.271 65.4928 133.248 65.6325 133.248 65.7902V69.0091H132.026V65.7902C132.026 65.4518 131.957 65.2053 131.819 65.0508C131.684 64.8964 131.485 64.8192 131.223 64.8192C131.045 64.8192 130.879 64.8635 130.725 64.9523C130.574 65.0377 130.432 65.156 130.301 65.3072V69.0091H129.083Z" fill="#004377"/>
<path d="M142.095 63.9516V69.0091H141.351C141.19 69.0091 141.088 68.9351 141.046 68.7872L140.962 68.383C140.755 68.5934 140.526 68.7642 140.277 68.8957C140.027 69.0238 139.733 69.0879 139.394 69.0879C139.118 69.0879 138.873 69.0419 138.66 68.9499C138.449 68.8546 138.272 68.7215 138.127 68.5506C137.983 68.3798 137.873 68.1777 137.797 67.9443C137.725 67.7077 137.689 67.4481 137.689 67.1655V63.9516H138.906V67.1655C138.906 67.4744 138.977 67.7143 139.118 67.8852C139.263 68.0528 139.478 68.1366 139.764 68.1366C139.974 68.1366 140.171 68.0906 140.355 67.9986C140.539 67.9033 140.714 67.7735 140.878 67.6091V63.9516H142.095Z" fill="#004377"/>
<path d="M144.836 64.5727C144.938 64.4708 145.044 64.3772 145.156 64.2917C145.271 64.203 145.391 64.1291 145.516 64.0699C145.644 64.0075 145.78 63.9598 145.925 63.927C146.07 63.8908 146.227 63.8727 146.398 63.8727C146.674 63.8727 146.919 63.9204 147.133 64.0157C147.346 64.1077 147.524 64.2391 147.665 64.41C147.81 64.5776 147.918 64.7797 147.99 65.0163C148.066 65.2497 148.104 65.5076 148.104 65.7902V69.0091H146.886V65.7902C146.886 65.4813 146.816 65.2431 146.674 65.0755C146.533 64.9046 146.318 64.8192 146.029 64.8192C145.818 64.8192 145.621 64.8668 145.437 64.9621C145.253 65.0574 145.079 65.1872 144.915 65.3515V69.0091H143.697V63.9516H144.441C144.599 63.9516 144.703 64.0255 144.752 64.1734L144.836 64.5727Z" fill="#004377"/>
<path d="M150.918 63.9516V69.0091H149.696V63.9516H150.918ZM151.086 62.4777C151.086 62.5829 151.064 62.6815 151.022 62.7735C150.979 62.8655 150.921 62.946 150.849 63.015C150.78 63.0841 150.698 63.1399 150.603 63.1826C150.507 63.2221 150.405 63.2418 150.297 63.2418C150.192 63.2418 150.092 63.2221 149.996 63.1826C149.904 63.1399 149.824 63.0841 149.755 63.015C149.686 62.946 149.63 62.8655 149.587 62.7735C149.548 62.6815 149.528 62.5829 149.528 62.4777C149.528 62.3693 149.548 62.2674 149.587 62.1721C149.63 62.0768 149.686 61.9947 149.755 61.9257C149.824 61.8567 149.904 61.8024 149.996 61.763C150.092 61.7203 150.192 61.6989 150.297 61.6989C150.405 61.6989 150.507 61.7203 150.603 61.763C150.698 61.8024 150.78 61.8567 150.849 61.9257C150.921 61.9947 150.979 62.0768 151.022 62.1721C151.064 62.2674 151.086 62.3693 151.086 62.4777Z" fill="#004377"/>
<path d="M154.239 69.0879C153.799 69.0879 153.461 68.9647 153.224 68.7182C152.991 68.4685 152.874 68.1251 152.874 67.688V64.8635H152.356C152.291 64.8635 152.235 64.8422 152.189 64.7994C152.143 64.7567 152.12 64.6926 152.12 64.6072V64.1241L152.933 63.991L153.189 62.6108C153.206 62.5451 153.237 62.4942 153.283 62.458C153.329 62.4219 153.388 62.4038 153.461 62.4038H154.092V63.996H155.442V64.8635H154.092V67.6042C154.092 67.762 154.129 67.8852 154.205 67.9739C154.284 68.0626 154.391 68.107 154.525 68.107C154.601 68.107 154.663 68.0988 154.713 68.0824C154.765 68.0626 154.81 68.0429 154.846 68.0232C154.885 68.0035 154.92 67.9854 154.949 67.969C154.979 67.9493 155.008 67.9394 155.038 67.9394C155.074 67.9394 155.104 67.9493 155.127 67.969C155.15 67.9854 155.174 68.0117 155.201 68.0479L155.565 68.6394C155.388 68.7872 155.184 68.899 154.954 68.9746C154.724 69.0501 154.486 69.0879 154.239 69.0879Z" fill="#004377"/>
<path d="M161.21 63.9516L158.455 70.3991C158.419 70.4846 158.371 70.5486 158.312 70.5914C158.256 70.6374 158.169 70.6604 158.05 70.6604H157.143L158.09 68.6295L156.044 63.9516H157.114C157.209 63.9516 157.283 63.9746 157.336 64.0206C157.392 64.0666 157.433 64.1192 157.459 64.1784L158.534 66.8007C158.57 66.8895 158.599 66.9782 158.622 67.0669C158.649 67.1557 158.673 67.246 158.696 67.338C158.726 67.246 158.755 67.1557 158.785 67.0669C158.814 66.9749 158.847 66.8845 158.883 66.7958L159.899 64.1784C159.925 64.1126 159.968 64.0584 160.027 64.0157C160.09 63.973 160.159 63.9516 160.234 63.9516H161.21Z" fill="#004377"/>
<path d="M161.824 70.2167C161.765 70.1674 161.735 70.1067 161.735 70.0344C161.735 70.0081 161.743 69.9785 161.76 69.9456C161.779 69.9128 161.802 69.8832 161.829 69.8569C161.865 69.8175 161.909 69.7682 161.962 69.709C162.014 69.6532 162.067 69.5874 162.119 69.5119C162.172 69.4396 162.22 69.359 162.262 69.2703C162.308 69.1849 162.343 69.0929 162.366 68.9943C162.261 68.9943 162.165 68.9762 162.08 68.9401C161.995 68.9006 161.921 68.848 161.858 68.7823C161.799 68.7166 161.751 68.6394 161.715 68.5506C161.682 68.4619 161.666 68.365 161.666 68.2598C161.666 68.1678 161.682 68.0824 161.715 68.0035C161.751 67.9213 161.801 67.8507 161.863 67.7915C161.926 67.7291 162.001 67.6814 162.09 67.6486C162.179 67.6124 162.276 67.5944 162.381 67.5944C162.506 67.5944 162.614 67.6174 162.706 67.6634C162.801 67.7061 162.879 67.7669 162.938 67.8457C163 67.9213 163.046 68.0101 163.076 68.1119C163.109 68.2105 163.125 68.3157 163.125 68.4274C163.125 68.5851 163.1 68.7511 163.051 68.9253C163.005 69.0994 162.936 69.2736 162.844 69.4478C162.752 69.6219 162.637 69.7912 162.499 69.9555C162.364 70.1198 162.21 70.271 162.036 70.409L161.824 70.2167Z" fill="#004377"/>
<path d="M169.686 65.2727C169.936 65.2727 170.153 65.2414 170.337 65.179C170.524 65.1166 170.677 65.0311 170.795 64.9227C170.917 64.8109 171.007 64.6795 171.066 64.5283C171.126 64.3772 171.155 64.2112 171.155 64.0305C171.155 63.669 171.035 63.3913 170.795 63.1974C170.559 63.0035 170.196 62.9066 169.706 62.9066H168.858V65.2727H169.686ZM173.097 69.0091H171.9C171.673 69.0091 171.508 68.9203 171.407 68.7429L169.908 66.4606C169.852 66.3752 169.79 66.3144 169.721 66.2782C169.655 66.2421 169.556 66.224 169.425 66.224H168.858V69.0091H167.532V61.8813H169.706C170.189 61.8813 170.603 61.9322 170.948 62.0341C171.297 62.1327 171.581 62.2724 171.801 62.4531C172.024 62.6338 172.189 62.8507 172.294 63.1038C172.399 63.3535 172.452 63.6296 172.452 63.9319C172.452 64.1718 172.415 64.3985 172.343 64.6121C172.274 64.8257 172.172 65.0196 172.038 65.1938C171.906 65.368 171.742 65.5208 171.545 65.6522C171.351 65.7837 171.129 65.8872 170.879 65.9628C170.965 66.0121 171.043 66.0712 171.116 66.1402C171.188 66.2059 171.254 66.2848 171.313 66.3768L173.097 69.0091Z" fill="#004377"/>
<path d="M177 65.8987C177 65.7409 176.977 65.5931 176.931 65.455C176.888 65.3137 176.823 65.1905 176.734 65.0853C176.645 64.9802 176.532 64.898 176.394 64.8389C176.259 64.7764 176.101 64.7452 175.921 64.7452C175.569 64.7452 175.291 64.8455 175.088 65.0459C174.887 65.2464 174.759 65.5306 174.703 65.8987H177ZM174.678 66.6331C174.698 66.8928 174.744 67.1179 174.816 67.3085C174.889 67.4958 174.984 67.6519 175.102 67.7767C175.221 67.8983 175.36 67.9903 175.521 68.0528C175.686 68.1119 175.866 68.1415 176.064 68.1415C176.261 68.1415 176.43 68.1185 176.571 68.0725C176.716 68.0265 176.841 67.9756 176.946 67.9197C177.054 67.8638 177.148 67.8129 177.227 67.7669C177.309 67.7209 177.388 67.6979 177.463 67.6979C177.565 67.6979 177.641 67.7357 177.69 67.8112L178.04 68.2549C177.905 68.4126 177.754 68.5457 177.587 68.6542C177.419 68.7593 177.243 68.8448 177.059 68.9105C176.879 68.9729 176.693 69.0173 176.502 69.0436C176.315 69.0699 176.133 69.083 175.955 69.083C175.603 69.083 175.277 69.0255 174.974 68.9105C174.672 68.7922 174.409 68.6196 174.185 68.3929C173.962 68.1629 173.786 67.8803 173.658 67.5451C173.53 67.2066 173.466 66.8155 173.466 66.3719C173.466 66.0268 173.522 65.7031 173.633 65.4008C173.745 65.0952 173.905 64.8307 174.112 64.6072C174.322 64.3805 174.577 64.2014 174.876 64.0699C175.178 63.9385 175.518 63.8727 175.896 63.8727C176.215 63.8727 176.509 63.9237 176.778 64.0255C177.048 64.1274 177.279 64.2769 177.473 64.4741C177.667 64.668 177.818 64.9079 177.927 65.1938C178.039 65.4764 178.094 65.8001 178.094 66.1649C178.094 66.3489 178.075 66.4738 178.035 66.5395C177.996 66.6019 177.92 66.6331 177.809 66.6331H174.678Z" fill="#004377"/>
<path d="M180.664 63.9516V69.0091H179.442V63.9516H180.664ZM180.832 62.4777C180.832 62.5829 180.811 62.6815 180.768 62.7735C180.725 62.8655 180.668 62.946 180.595 63.015C180.526 63.0841 180.444 63.1399 180.349 63.1826C180.254 63.2221 180.152 63.2418 180.043 63.2418C179.938 63.2418 179.838 63.2221 179.743 63.1826C179.651 63.1399 179.57 63.0841 179.501 63.015C179.432 62.946 179.376 62.8655 179.333 62.7735C179.294 62.6815 179.274 62.5829 179.274 62.4777C179.274 62.3693 179.294 62.2674 179.333 62.1721C179.376 62.0768 179.432 61.9947 179.501 61.9257C179.57 61.8567 179.651 61.8024 179.743 61.763C179.838 61.7203 179.938 61.6989 180.043 61.6989C180.152 61.6989 180.254 61.7203 180.349 61.763C180.444 61.8024 180.526 61.8567 180.595 61.9257C180.668 61.9947 180.725 62.0768 180.768 62.1721C180.811 62.2674 180.832 62.3693 180.832 62.4777Z" fill="#004377"/>
<path d="M183.439 64.5727C183.54 64.4708 183.647 64.3772 183.759 64.2917C183.874 64.203 183.994 64.1291 184.119 64.0699C184.247 64.0075 184.383 63.9598 184.528 63.927C184.673 63.8908 184.83 63.8727 185.001 63.8727C185.277 63.8727 185.522 63.9204 185.736 64.0157C185.949 64.1077 186.127 64.2391 186.268 64.41C186.413 64.5776 186.521 64.7797 186.593 65.0163C186.669 65.2497 186.707 65.5076 186.707 65.7902V69.0091H185.489V65.7902C185.489 65.4813 185.419 65.2431 185.277 65.0755C185.136 64.9046 184.921 64.8192 184.632 64.8192C184.421 64.8192 184.224 64.8668 184.04 64.9621C183.856 65.0574 183.682 65.1872 183.517 65.3515V69.0091H182.3V63.9516H183.044C183.202 63.9516 183.306 64.0255 183.355 64.1734L183.439 64.5727Z" fill="#004377"/>
<path d="M189.877 69.0879C189.437 69.0879 189.099 68.9647 188.862 68.7182C188.629 68.4685 188.512 68.1251 188.512 67.688V64.8635H187.994C187.929 64.8635 187.873 64.8422 187.827 64.7994C187.781 64.7567 187.758 64.6926 187.758 64.6072V64.1241L188.571 63.991L188.827 62.6108C188.844 62.5451 188.875 62.4942 188.921 62.458C188.967 62.4219 189.026 62.4038 189.099 62.4038H189.73V63.996H191.08V64.8635H189.73V67.6042C189.73 67.762 189.767 67.8852 189.843 67.9739C189.922 68.0626 190.029 68.107 190.163 68.107C190.239 68.107 190.301 68.0988 190.351 68.0824C190.403 68.0626 190.448 68.0429 190.484 68.0232C190.523 68.0035 190.558 67.9854 190.587 67.969C190.617 67.9493 190.646 67.9394 190.676 67.9394C190.712 67.9394 190.742 67.9493 190.765 67.969C190.788 67.9854 190.812 68.0117 190.839 68.0479L191.203 68.6394C191.026 68.7872 190.822 68.899 190.592 68.9746C190.362 69.0501 190.124 69.0879 189.877 69.0879Z" fill="#004377"/>
<path d="M195.474 65.8987C195.474 65.7409 195.451 65.5931 195.405 65.455C195.362 65.3137 195.296 65.1905 195.208 65.0853C195.119 64.9802 195.006 64.898 194.867 64.8389C194.733 64.7764 194.575 64.7452 194.394 64.7452C194.043 64.7452 193.765 64.8455 193.561 65.0459C193.361 65.2464 193.233 65.5306 193.177 65.8987H195.474ZM193.152 66.6331C193.172 66.8928 193.218 67.1179 193.29 67.3085C193.362 67.4958 193.458 67.6519 193.576 67.7767C193.694 67.8983 193.834 67.9903 193.995 68.0528C194.159 68.1119 194.34 68.1415 194.537 68.1415C194.734 68.1415 194.904 68.1185 195.045 68.0725C195.19 68.0265 195.314 67.9756 195.42 67.9197C195.528 67.8638 195.622 67.8129 195.701 67.7669C195.783 67.7209 195.862 67.6979 195.937 67.6979C196.039 67.6979 196.115 67.7357 196.164 67.8112L196.514 68.2549C196.379 68.4126 196.228 68.5457 196.06 68.6542C195.893 68.7593 195.717 68.8448 195.533 68.9105C195.352 68.9729 195.167 69.0173 194.976 69.0436C194.789 69.0699 194.606 69.083 194.429 69.083C194.077 69.083 193.75 69.0255 193.448 68.9105C193.146 68.7922 192.883 68.6196 192.659 68.3929C192.436 68.1629 192.26 67.8803 192.132 67.5451C192.004 67.2066 191.939 66.8155 191.939 66.3719C191.939 66.0268 191.995 65.7031 192.107 65.4008C192.219 65.0952 192.378 64.8307 192.585 64.6072C192.796 64.3805 193.05 64.2014 193.349 64.0699C193.652 63.9385 193.992 63.8727 194.37 63.8727C194.688 63.8727 194.983 63.9237 195.252 64.0255C195.521 64.1274 195.753 64.2769 195.947 64.4741C196.141 64.668 196.292 64.9079 196.401 65.1938C196.512 65.4764 196.568 65.8001 196.568 66.1649C196.568 66.3489 196.548 66.4738 196.509 66.5395C196.47 66.6019 196.394 66.6331 196.282 66.6331H193.152Z" fill="#004377"/>
<path d="M199.725 66.3571C199.876 66.3571 200.007 66.3374 200.119 66.298C200.231 66.2552 200.323 66.1977 200.395 66.1254C200.471 66.0531 200.526 65.966 200.563 65.8642C200.602 65.7623 200.622 65.6506 200.622 65.529C200.622 65.2792 200.546 65.0821 200.395 64.9375C200.247 64.7896 200.024 64.7156 199.725 64.7156C199.426 64.7156 199.2 64.7896 199.049 64.9375C198.901 65.0821 198.827 65.2792 198.827 65.529C198.827 65.6473 198.846 65.7574 198.882 65.8592C198.921 65.9611 198.977 66.0498 199.049 66.1254C199.125 66.1977 199.219 66.2552 199.33 66.298C199.445 66.3374 199.577 66.3571 199.725 66.3571ZM201.1 69.2358C201.1 69.1372 201.07 69.0567 201.011 68.9943C200.952 68.9318 200.871 68.8842 200.77 68.8513C200.668 68.8152 200.548 68.7889 200.41 68.7725C200.275 68.756 200.13 68.7445 199.976 68.738C199.825 68.7281 199.667 68.7199 199.503 68.7133C199.342 68.7067 199.184 68.6936 199.03 68.6739C198.895 68.7495 198.785 68.8382 198.699 68.9401C198.617 69.0419 198.576 69.1602 198.576 69.295C198.576 69.3837 198.597 69.4658 198.64 69.5414C198.686 69.6203 198.757 69.6877 198.852 69.7435C198.951 69.7994 199.077 69.8421 199.232 69.8717C199.386 69.9045 199.575 69.921 199.799 69.921C200.025 69.921 200.221 69.9029 200.385 69.8668C200.549 69.8339 200.684 69.7862 200.789 69.7238C200.898 69.6647 200.977 69.5924 201.026 69.5069C201.075 69.4248 201.1 69.3344 201.1 69.2358ZM202.312 64.1241V64.5776C202.312 64.7222 202.225 64.8109 202.051 64.8438L201.598 64.9276C201.667 65.1018 201.701 65.2924 201.701 65.4994C201.701 65.7492 201.65 65.9759 201.548 66.1796C201.45 66.3801 201.312 66.551 201.134 66.6923C200.957 66.8336 200.747 66.9437 200.503 67.0226C200.264 67.0981 200.004 67.1359 199.725 67.1359C199.626 67.1359 199.531 67.131 199.439 67.1211C199.347 67.1113 199.256 67.0981 199.168 67.0817C199.01 67.177 198.931 67.2838 198.931 67.4021C198.931 67.504 198.977 67.5796 199.069 67.6289C199.164 67.6749 199.289 67.7077 199.444 67.7274C199.598 67.7472 199.774 67.7603 199.971 67.7669C200.168 67.7702 200.37 67.78 200.577 67.7965C200.784 67.8129 200.987 67.8425 201.184 67.8852C201.381 67.9246 201.557 67.9887 201.711 68.0774C201.866 68.1662 201.989 68.2877 202.081 68.4422C202.176 68.5934 202.224 68.7889 202.224 69.0288C202.224 69.2522 202.168 69.4691 202.056 69.6794C201.948 69.8898 201.788 70.0771 201.578 70.2414C201.371 70.4057 201.115 70.5371 200.809 70.6357C200.507 70.7376 200.162 70.7885 199.774 70.7885C199.393 70.7885 199.061 70.7507 198.778 70.6752C198.496 70.6029 198.261 70.5043 198.073 70.3794C197.886 70.2578 197.746 70.1165 197.654 69.9555C197.562 69.7945 197.516 69.6269 197.516 69.4527C197.516 69.2161 197.587 69.0189 197.728 68.8612C197.873 68.7002 198.07 68.572 198.32 68.4767C198.185 68.4077 198.078 68.3157 197.999 68.2007C197.92 68.0856 197.881 67.9345 197.881 67.7472C197.881 67.6716 197.894 67.5944 197.92 67.5155C197.95 67.4333 197.991 67.3528 198.044 67.274C198.1 67.1951 198.169 67.1211 198.251 67.0521C198.333 66.9798 198.43 66.9158 198.542 66.8599C198.285 66.7219 198.083 66.5378 197.935 66.3078C197.791 66.0778 197.718 65.8083 197.718 65.4994C197.718 65.2497 197.768 65.0246 197.866 64.8241C197.968 64.6203 198.108 64.4478 198.285 64.3065C198.466 64.1619 198.678 64.0518 198.921 63.9763C199.168 63.9007 199.435 63.8629 199.725 63.8629C199.942 63.8629 200.145 63.8859 200.336 63.9319C200.526 63.9746 200.701 64.0387 200.858 64.1241H202.312Z" fill="#004377"/>
<path d="M204.627 64.829C204.785 64.5267 204.973 64.2901 205.189 64.1192C205.406 63.945 205.663 63.858 205.958 63.858C206.192 63.858 206.379 63.9089 206.52 64.0108L206.441 64.9227C206.425 64.9818 206.4 65.0246 206.368 65.0508C206.338 65.0738 206.297 65.0853 206.244 65.0853C206.195 65.0853 206.121 65.0771 206.022 65.0607C205.927 65.0443 205.834 65.0361 205.742 65.0361C205.607 65.0361 205.487 65.0558 205.382 65.0952C205.277 65.1346 205.181 65.1921 205.096 65.2677C205.014 65.34 204.94 65.4288 204.874 65.5339C204.812 65.6391 204.752 65.759 204.696 65.8937V69.0091H203.479V63.9516H204.194C204.319 63.9516 204.406 63.9746 204.455 64.0206C204.504 64.0633 204.537 64.1422 204.554 64.2572L204.627 64.829Z" fill="#004377"/>
<path d="M210.155 66.85C209.804 66.8665 209.508 66.8977 209.268 66.9437C209.028 66.9864 208.836 67.0423 208.691 67.1113C208.547 67.1803 208.443 67.2608 208.381 67.3528C208.318 67.4448 208.287 67.5451 208.287 67.6535C208.287 67.8671 208.35 68.0199 208.474 68.1119C208.603 68.2039 208.769 68.25 208.972 68.25C209.222 68.25 209.437 68.2056 209.618 68.1169C209.802 68.0248 209.981 67.8868 210.155 67.7028V66.85ZM207.365 64.6565C207.947 64.1241 208.647 63.858 209.465 63.858C209.761 63.858 210.025 63.9072 210.259 64.0058C210.492 64.1011 210.689 64.2359 210.85 64.41C211.011 64.5809 211.133 64.7863 211.215 65.0262C211.301 65.2661 211.343 65.529 211.343 65.8149V69.0091H210.791C210.676 69.0091 210.587 68.9926 210.525 68.9598C210.463 68.9236 210.413 68.853 210.377 68.7478L210.269 68.383C210.141 68.4981 210.016 68.5999 209.894 68.6887C209.772 68.7741 209.646 68.8464 209.514 68.9055C209.383 68.9647 209.242 69.0091 209.091 69.0386C208.943 69.0715 208.778 69.0879 208.598 69.0879C208.384 69.0879 208.187 69.06 208.006 69.0041C207.825 68.945 207.669 68.8579 207.538 68.7429C207.406 68.6279 207.305 68.4849 207.232 68.314C207.16 68.1432 207.124 67.9443 207.124 67.7176C207.124 67.5894 207.145 67.4629 207.188 67.338C207.231 67.2099 207.3 67.0883 207.395 66.9733C207.493 66.8582 207.62 66.7498 207.774 66.6479C207.929 66.5461 208.118 66.4573 208.341 66.3817C208.568 66.3062 208.831 66.2454 209.13 66.1994C209.429 66.1501 209.771 66.1205 210.155 66.1106V65.8149C210.155 65.4764 210.083 65.2267 209.938 65.0656C209.794 64.9013 209.585 64.8192 209.312 64.8192C209.115 64.8192 208.951 64.8422 208.819 64.8882C208.691 64.9342 208.578 64.9868 208.479 65.0459C208.381 65.1018 208.29 65.1527 208.208 65.1987C208.129 65.2447 208.041 65.2677 207.942 65.2677C207.857 65.2677 207.784 65.2464 207.725 65.2036C207.666 65.1576 207.618 65.1051 207.582 65.0459L207.365 64.6565Z" fill="#004377"/>
<path d="M217.919 69.0091H216.701V64.8635H214.355V67.6042C214.355 67.762 214.393 67.8852 214.468 67.9739C214.547 68.0626 214.654 68.107 214.789 68.107C214.864 68.107 214.927 68.0988 214.976 68.0824C215.029 68.0626 215.073 68.0429 215.109 68.0232C215.148 68.0035 215.183 67.9854 215.213 67.969C215.242 67.9493 215.272 67.9394 215.301 67.9394C215.337 67.9394 215.367 67.9493 215.39 67.969C215.413 67.9854 215.438 68.0117 215.464 68.0479L215.829 68.6394C215.651 68.7872 215.447 68.899 215.217 68.9746C214.987 69.0501 214.749 69.0879 214.503 69.0879C214.062 69.0879 213.724 68.9647 213.487 68.7182C213.254 68.4685 213.137 68.1251 213.137 67.688V64.8635H212.62C212.554 64.8635 212.498 64.8422 212.452 64.7994C212.406 64.7567 212.383 64.6926 212.383 64.6072V64.1241L213.196 63.9861L213.453 62.6108C213.469 62.5451 213.5 62.4942 213.546 62.458C213.592 62.4219 213.652 62.4038 213.724 62.4038H214.355V63.996H217.919V69.0091ZM218.131 62.458C218.131 62.5632 218.109 62.6634 218.067 62.7587C218.024 62.8507 217.966 62.9312 217.894 63.0003C217.825 63.0693 217.741 63.1251 217.643 63.1679C217.547 63.2073 217.445 63.227 217.337 63.227C217.232 63.227 217.133 63.2073 217.041 63.1679C216.949 63.1251 216.869 63.0693 216.8 63.0003C216.731 62.9312 216.675 62.8507 216.632 62.7587C216.593 62.6634 216.573 62.5632 216.573 62.458C216.573 62.3496 216.593 62.2494 216.632 62.1573C216.675 62.062 216.731 61.9799 216.8 61.9109C216.869 61.8386 216.949 61.7827 217.041 61.7433C217.133 61.7006 217.232 61.6792 217.337 61.6792C217.445 61.6792 217.547 61.7006 217.643 61.7433C217.741 61.7827 217.825 61.8386 217.894 61.9109C217.966 61.9799 218.024 62.062 218.067 62.1573C218.109 62.2494 218.131 62.3496 218.131 62.458Z" fill="#004377"/>
<path d="M221.794 63.8727C222.168 63.8727 222.508 63.9335 222.814 64.0551C223.123 64.1767 223.386 64.3492 223.603 64.5727C223.823 64.7962 223.992 65.0689 224.11 65.391C224.229 65.713 224.288 66.0728 224.288 66.4705C224.288 66.8714 224.229 67.2329 224.11 67.5549C223.992 67.877 223.823 68.1514 223.603 68.3781C223.386 68.6049 223.123 68.779 222.814 68.9006C222.508 69.0222 222.168 69.083 221.794 69.083C221.416 69.083 221.072 69.0222 220.763 68.9006C220.455 68.779 220.19 68.6049 219.97 68.3781C219.753 68.1514 219.584 67.877 219.462 67.5549C219.344 67.2329 219.285 66.8714 219.285 66.4705C219.285 66.0728 219.344 65.713 219.462 65.391C219.584 65.0689 219.753 64.7962 219.97 64.5727C220.19 64.3492 220.455 64.1767 220.763 64.0551C221.072 63.9335 221.416 63.8727 221.794 63.8727ZM221.794 68.1464C222.214 68.1464 222.525 68.0051 222.725 67.7225C222.929 67.4399 223.031 67.0258 223.031 66.4803C223.031 65.9348 222.929 65.5191 222.725 65.2332C222.525 64.9473 222.214 64.8044 221.794 64.8044C221.366 64.8044 221.049 64.949 220.842 65.2382C220.639 65.5241 220.537 65.9381 220.537 66.4803C220.537 67.0226 220.639 67.4366 220.842 67.7225C221.049 68.0051 221.366 68.1464 221.794 68.1464Z" fill="#004377"/>
<path d="M226.75 64.5727C226.852 64.4708 226.958 64.3772 227.07 64.2917C227.185 64.203 227.305 64.1291 227.43 64.0699C227.558 64.0075 227.695 63.9598 227.839 63.927C227.984 63.8908 228.141 63.8727 228.312 63.8727C228.588 63.8727 228.833 63.9204 229.047 64.0157C229.26 64.1077 229.438 64.2391 229.579 64.41C229.724 64.5776 229.832 64.7797 229.905 65.0163C229.98 65.2497 230.018 65.5076 230.018 65.7902V69.0091H228.8V65.7902C228.8 65.4813 228.73 65.2431 228.588 65.0755C228.447 64.9046 228.232 64.8192 227.943 64.8192C227.732 64.8192 227.535 64.8668 227.351 64.9621C227.167 65.0574 226.993 65.1872 226.829 65.3515V69.0091H225.611V63.9516H226.355C226.513 63.9516 226.617 64.0255 226.666 64.1734L226.75 64.5727Z" fill="#004377"/>
<path d="M231.55 70.2167C231.491 70.1674 231.462 70.1067 231.462 70.0344C231.462 70.0081 231.47 69.9785 231.486 69.9456C231.506 69.9128 231.529 69.8832 231.555 69.8569C231.592 69.8175 231.636 69.7682 231.688 69.709C231.741 69.6532 231.794 69.5874 231.846 69.5119C231.899 69.4396 231.946 69.359 231.989 69.2703C232.035 69.1849 232.07 69.0929 232.093 68.9943C231.988 68.9943 231.892 68.9762 231.807 68.9401C231.721 68.9006 231.647 68.848 231.585 68.7823C231.526 68.7166 231.478 68.6394 231.442 68.5506C231.409 68.4619 231.393 68.365 231.393 68.2598C231.393 68.1678 231.409 68.0824 231.442 68.0035C231.478 67.9213 231.527 67.8507 231.59 67.7915C231.652 67.7291 231.728 67.6814 231.817 67.6486C231.905 67.6124 232.002 67.5944 232.107 67.5944C232.232 67.5944 232.341 67.6174 232.433 67.6634C232.528 67.7061 232.605 67.7669 232.664 67.8457C232.727 67.9213 232.773 68.0101 232.802 68.1119C232.835 68.2105 232.852 68.3157 232.852 68.4274C232.852 68.5851 232.827 68.7511 232.778 68.9253C232.732 69.0994 232.663 69.2736 232.571 69.4478C232.479 69.6219 232.364 69.7912 232.226 69.9555C232.091 70.1198 231.937 70.271 231.762 70.409L231.55 70.2167Z" fill="#004377"/>
<path d="M109.322 77.5072C109.059 77.678 108.867 77.8719 108.745 78.0888C108.627 78.3024 108.568 78.5325 108.568 78.7789C108.568 78.9597 108.599 79.1223 108.661 79.2669C108.724 79.4115 108.807 79.5347 108.913 79.6366C109.021 79.7352 109.146 79.8124 109.287 79.8683C109.432 79.9209 109.585 79.9472 109.746 79.9472C110.035 79.9472 110.299 79.9028 110.539 79.8141C110.779 79.7221 110.996 79.5955 111.19 79.4345L109.322 77.5072ZM114.069 80.8394H112.876C112.751 80.8394 112.649 80.8246 112.57 80.795C112.495 80.7654 112.414 80.703 112.329 80.6077L111.836 80.1C111.523 80.3563 111.173 80.5568 110.786 80.7013C110.398 80.8459 109.979 80.9182 109.529 80.9182C109.256 80.9182 108.987 80.8722 108.72 80.7802C108.457 80.6849 108.222 80.5485 108.015 80.3711C107.808 80.1936 107.641 79.98 107.513 79.7303C107.388 79.4772 107.325 79.193 107.325 78.8775C107.325 78.654 107.361 78.4437 107.434 78.2466C107.506 78.0461 107.606 77.8604 107.734 77.6895C107.863 77.5187 108.015 77.3659 108.193 77.2311C108.37 77.0931 108.564 76.9748 108.775 76.8762C108.597 76.6297 108.469 76.3899 108.39 76.1565C108.311 75.9199 108.272 75.685 108.272 75.4516C108.272 75.2052 108.316 74.9719 108.405 74.7517C108.497 74.5282 108.628 74.3343 108.799 74.17C108.97 74.0057 109.18 73.8759 109.43 73.7806C109.68 73.682 109.963 73.6327 110.278 73.6327C110.567 73.6327 110.825 73.6771 111.052 73.7658C111.282 73.8546 111.477 73.9729 111.638 74.1207C111.803 74.2686 111.931 74.4379 112.023 74.6285C112.118 74.8191 112.174 75.0162 112.191 75.22L111.417 75.3826C111.272 75.4122 111.167 75.3498 111.101 75.1953C111.072 75.1099 111.032 75.0294 110.983 74.9538C110.937 74.8749 110.881 74.8076 110.815 74.7517C110.75 74.6925 110.672 74.6465 110.584 74.6137C110.495 74.5775 110.393 74.5594 110.278 74.5594C110.14 74.5594 110.017 74.5841 109.908 74.6334C109.8 74.6794 109.708 74.7435 109.632 74.8256C109.56 74.9045 109.504 74.9982 109.465 75.1066C109.425 75.2118 109.405 75.3235 109.405 75.4418C109.405 75.5404 109.415 75.6357 109.435 75.7277C109.455 75.8197 109.488 75.9117 109.534 76.0037C109.58 76.0957 109.639 76.191 109.711 76.2896C109.787 76.3849 109.879 76.4884 109.987 76.6002L111.88 78.567C111.988 78.3599 112.076 78.1414 112.141 77.9114C112.207 77.6813 112.25 77.448 112.269 77.2114C112.279 77.1358 112.306 77.075 112.348 77.029C112.391 76.983 112.45 76.96 112.526 76.96H113.285C113.282 77.3938 113.219 77.8078 113.098 78.2022C112.976 78.5965 112.802 78.9597 112.575 79.2916L114.069 80.8394Z" fill="#004377"/>
<path d="M119.41 74.7665V76.7431H121.904V77.7635H119.41V79.7796H122.575V80.8394H118.079V73.7116H122.575V74.7665H119.41Z" fill="#004377"/>
<path d="M127.363 76.8516C127.327 76.8976 127.291 76.9337 127.255 76.96C127.222 76.9863 127.172 76.9994 127.107 76.9994C127.044 76.9994 126.983 76.9814 126.924 76.9452C126.865 76.9058 126.794 76.8631 126.712 76.8171C126.63 76.7678 126.532 76.725 126.417 76.6889C126.305 76.6495 126.165 76.6297 125.998 76.6297C125.784 76.6297 125.597 76.6692 125.436 76.7481C125.275 76.8236 125.14 76.9337 125.031 77.0783C124.926 77.2229 124.847 77.3987 124.795 77.6058C124.742 77.8095 124.716 78.0412 124.716 78.3008C124.716 78.5702 124.744 78.8101 124.8 79.0205C124.859 79.2308 124.943 79.4082 125.051 79.5528C125.16 79.6941 125.291 79.8026 125.445 79.8782C125.6 79.9505 125.774 79.9866 125.968 79.9866C126.162 79.9866 126.318 79.9636 126.436 79.9176C126.558 79.8683 126.66 79.8157 126.742 79.7599C126.824 79.7007 126.895 79.6481 126.954 79.6021C127.016 79.5528 127.085 79.5282 127.161 79.5282C127.259 79.5282 127.333 79.566 127.383 79.6415L127.733 80.0852C127.598 80.2429 127.452 80.376 127.294 80.4845C127.136 80.5896 126.972 80.6751 126.801 80.7408C126.633 80.8032 126.459 80.8476 126.279 80.8739C126.101 80.9002 125.924 80.9133 125.746 80.9133C125.434 80.9133 125.14 80.8558 124.864 80.7408C124.588 80.6225 124.346 80.4516 124.139 80.2281C123.932 80.0047 123.768 79.7319 123.646 79.4099C123.528 79.0845 123.469 78.7148 123.469 78.3008C123.469 77.9294 123.521 77.586 123.627 77.2706C123.735 76.9518 123.893 76.6774 124.1 76.4474C124.307 76.214 124.563 76.0317 124.869 75.9002C125.174 75.7688 125.526 75.703 125.924 75.703C126.302 75.703 126.632 75.7638 126.914 75.8854C127.2 76.007 127.457 76.1812 127.683 76.4079L127.363 76.8516Z" fill="#004377"/>
<path d="M131.042 75.703C131.416 75.703 131.756 75.7638 132.062 75.8854C132.371 76.007 132.634 76.1795 132.851 76.403C133.071 76.6265 133.24 76.8992 133.358 77.2213C133.477 77.5433 133.536 77.9031 133.536 78.3008C133.536 78.7017 133.477 79.0632 133.358 79.3852C133.24 79.7073 133.071 79.9817 132.851 80.2084C132.634 80.4352 132.371 80.6093 132.062 80.7309C131.756 80.8525 131.416 80.9133 131.042 80.9133C130.664 80.9133 130.32 80.8525 130.011 80.7309C129.702 80.6093 129.438 80.4352 129.218 80.2084C129.001 79.9817 128.832 79.7073 128.71 79.3852C128.592 79.0632 128.533 78.7017 128.533 78.3008C128.533 77.9031 128.592 77.5433 128.71 77.2213C128.832 76.8992 129.001 76.6265 129.218 76.403C129.438 76.1795 129.702 76.007 130.011 75.8854C130.32 75.7638 130.664 75.703 131.042 75.703ZM131.042 79.9767C131.462 79.9767 131.773 79.8354 131.973 79.5528C132.177 79.2702 132.279 78.8561 132.279 78.3106C132.279 77.7651 132.177 77.3494 131.973 77.0635C131.773 76.7776 131.462 76.6347 131.042 76.6347C130.614 76.6347 130.297 76.7793 130.09 77.0685C129.886 77.3544 129.785 77.7684 129.785 78.3106C129.785 78.8529 129.886 79.2669 130.09 79.5528C130.297 79.8354 130.614 79.9767 131.042 79.9767Z" fill="#004377"/>
<path d="M135.998 76.403C136.1 76.3011 136.206 76.2075 136.318 76.122C136.433 76.0333 136.553 75.9594 136.678 75.9002C136.806 75.8378 136.942 75.7901 137.087 75.7573C137.232 75.7211 137.389 75.703 137.56 75.703C137.836 75.703 138.081 75.7507 138.295 75.846C138.508 75.938 138.686 76.0695 138.827 76.2403C138.972 76.4079 139.08 76.61 139.152 76.8466C139.228 77.08 139.266 77.3379 139.266 77.6205V80.8394H138.048V77.6205C138.048 77.3116 137.978 77.0734 137.836 76.9058C137.695 76.7349 137.48 76.6495 137.191 76.6495C136.98 76.6495 136.783 76.6971 136.599 76.7924C136.415 76.8877 136.241 77.0175 136.077 77.1818V80.8394H134.859V75.7819H135.603C135.761 75.7819 135.865 75.8559 135.914 76.0037L135.998 76.403Z" fill="#004377"/>
<path d="M143.056 75.703C143.431 75.703 143.771 75.7638 144.076 75.8854C144.385 76.007 144.648 76.1795 144.865 76.403C145.085 76.6265 145.254 76.8992 145.373 77.2213C145.491 77.5433 145.55 77.9031 145.55 78.3008C145.55 78.7017 145.491 79.0632 145.373 79.3852C145.254 79.7073 145.085 79.9817 144.865 80.2084C144.648 80.4352 144.385 80.6093 144.076 80.7309C143.771 80.8525 143.431 80.9133 143.056 80.9133C142.678 80.9133 142.335 80.8525 142.026 80.7309C141.717 80.6093 141.452 80.4352 141.232 80.2084C141.015 79.9817 140.846 79.7073 140.724 79.3852C140.606 79.0632 140.547 78.7017 140.547 78.3008C140.547 77.9031 140.606 77.5433 140.724 77.2213C140.846 76.8992 141.015 76.6265 141.232 76.403C141.452 76.1795 141.717 76.007 142.026 75.8854C142.335 75.7638 142.678 75.703 143.056 75.703ZM143.056 79.9767C143.477 79.9767 143.787 79.8354 143.988 79.5528C144.191 79.2702 144.293 78.8561 144.293 78.3106C144.293 77.7651 144.191 77.3494 143.988 77.0635C143.787 76.7776 143.477 76.6347 143.056 76.6347C142.629 76.6347 142.312 76.7793 142.105 77.0685C141.901 77.3544 141.799 77.7684 141.799 78.3106C141.799 78.8529 141.901 79.2669 142.105 79.5528C142.312 79.8354 142.629 79.9767 143.056 79.9767Z" fill="#004377"/>
<path d="M146.873 80.8394V75.7819H147.618C147.775 75.7819 147.879 75.8559 147.928 76.0037L148.007 76.3784C148.096 76.2798 148.188 76.1894 148.283 76.1072C148.382 76.0251 148.485 75.9544 148.594 75.8953C148.705 75.8361 148.824 75.7901 148.949 75.7573C149.077 75.7211 149.216 75.703 149.368 75.703C149.686 75.703 149.948 75.7901 150.151 75.9643C150.358 76.1352 150.513 76.3636 150.615 76.6495C150.694 76.4819 150.792 76.3389 150.91 76.2206C151.029 76.099 151.159 76.0004 151.3 75.9249C151.441 75.8493 151.591 75.7934 151.748 75.7573C151.909 75.7211 152.07 75.703 152.231 75.703C152.511 75.703 152.759 75.7458 152.976 75.8312C153.193 75.9166 153.375 76.0415 153.523 76.2058C153.671 76.3701 153.783 76.5706 153.858 76.8072C153.937 77.0438 153.976 77.3149 153.976 77.6205V80.8394H152.759V77.6205C152.759 77.2985 152.688 77.057 152.547 76.8959C152.406 76.7316 152.199 76.6495 151.926 76.6495C151.801 76.6495 151.684 76.6708 151.576 76.7135C151.471 76.7563 151.377 76.8187 151.295 76.9009C151.216 76.9797 151.154 77.08 151.108 77.2015C151.062 77.3231 151.039 77.4628 151.039 77.6205V80.8394H149.816V77.6205C149.816 77.2821 149.747 77.0356 149.609 76.8811C149.474 76.7267 149.276 76.6495 149.013 76.6495C148.835 76.6495 148.669 76.6938 148.515 76.7826C148.364 76.868 148.222 76.9863 148.091 77.1375V80.8394H146.873Z" fill="#004377"/>
<path d="M156.79 75.7819V80.8394H155.568V75.7819H156.79ZM156.958 74.3081C156.958 74.4132 156.936 74.5118 156.894 74.6038C156.851 74.6958 156.793 74.7763 156.721 74.8453C156.652 74.9144 156.57 74.9702 156.475 75.0129C156.379 75.0524 156.277 75.0721 156.169 75.0721C156.064 75.0721 155.964 75.0524 155.868 75.0129C155.776 74.9702 155.696 74.9144 155.627 74.8453C155.558 74.7763 155.502 74.6958 155.459 74.6038C155.42 74.5118 155.4 74.4132 155.4 74.3081C155.4 74.1996 155.42 74.0977 155.459 74.0024C155.502 73.9071 155.558 73.825 155.627 73.756C155.696 73.687 155.776 73.6327 155.868 73.5933C155.964 73.5506 156.064 73.5292 156.169 73.5292C156.277 73.5292 156.379 73.5506 156.475 73.5933C156.57 73.6327 156.652 73.687 156.721 73.756C156.793 73.825 156.851 73.9071 156.894 74.0024C156.936 74.0977 156.958 74.1996 156.958 74.3081Z" fill="#004377"/>
<path d="M162.049 76.8516C162.012 76.8976 161.976 76.9337 161.94 76.96C161.907 76.9863 161.858 76.9994 161.792 76.9994C161.73 76.9994 161.669 76.9814 161.61 76.9452C161.551 76.9058 161.48 76.8631 161.398 76.8171C161.316 76.7678 161.217 76.725 161.102 76.6889C160.99 76.6495 160.851 76.6297 160.683 76.6297C160.47 76.6297 160.282 76.6692 160.121 76.7481C159.96 76.8236 159.826 76.9337 159.717 77.0783C159.612 77.2229 159.533 77.3987 159.48 77.6058C159.428 77.8095 159.402 78.0412 159.402 78.3008C159.402 78.5702 159.43 78.8101 159.485 79.0205C159.545 79.2308 159.628 79.4082 159.737 79.5528C159.845 79.6941 159.977 79.8026 160.131 79.8782C160.286 79.9505 160.46 79.9866 160.654 79.9866C160.848 79.9866 161.004 79.9636 161.122 79.9176C161.244 79.8683 161.345 79.8157 161.428 79.7599C161.51 79.7007 161.58 79.6481 161.64 79.6021C161.702 79.5528 161.771 79.5282 161.847 79.5282C161.945 79.5282 162.019 79.566 162.068 79.6415L162.418 80.0852C162.284 80.2429 162.137 80.376 161.98 80.4845C161.822 80.5896 161.658 80.6751 161.487 80.7408C161.319 80.8032 161.145 80.8476 160.964 80.8739C160.787 80.9002 160.609 80.9133 160.432 80.9133C160.12 80.9133 159.826 80.8558 159.549 80.7408C159.273 80.6225 159.032 80.4516 158.825 80.2281C158.618 80.0047 158.454 79.7319 158.332 79.4099C158.214 79.0845 158.155 78.7148 158.155 78.3008C158.155 77.9294 158.207 77.586 158.312 77.2706C158.421 76.9518 158.578 76.6774 158.785 76.4474C158.992 76.214 159.249 76.0317 159.554 75.9002C159.86 75.7688 160.212 75.703 160.609 75.703C160.987 75.703 161.317 75.7638 161.6 75.8854C161.886 76.007 162.142 76.1812 162.369 76.4079L162.049 76.8516Z" fill="#004377"/>
<path d="M172.889 77.2755C172.889 77.798 172.802 78.2778 172.628 78.7148C172.454 79.1519 172.209 79.5282 171.893 79.8436C171.578 80.1591 171.198 80.4039 170.755 80.5781C170.311 80.7523 169.818 80.8394 169.276 80.8394H166.56V73.7116H169.276C169.818 73.7116 170.311 73.8003 170.755 73.9778C171.198 74.152 171.578 74.3968 171.893 74.7123C172.209 75.0244 172.454 75.3991 172.628 75.8361C172.802 76.2732 172.889 76.753 172.889 77.2755ZM171.529 77.2755C171.529 76.8844 171.476 76.5344 171.371 76.2255C171.269 75.9134 171.119 75.6505 170.922 75.4369C170.728 75.22 170.492 75.054 170.212 74.939C169.936 74.824 169.624 74.7665 169.276 74.7665H167.891V79.7845H169.276C169.624 79.7845 169.936 79.727 170.212 79.612C170.492 79.497 170.728 79.3326 170.922 79.119C171.119 78.9022 171.269 78.6393 171.371 78.3304C171.476 78.0182 171.529 77.6665 171.529 77.2755Z" fill="#004377"/>
<path d="M177.453 77.729C177.453 77.5712 177.43 77.4234 177.384 77.2853C177.341 77.144 177.275 77.0208 177.186 76.9156C177.098 76.8105 176.984 76.7283 176.846 76.6692C176.712 76.6067 176.554 76.5755 176.373 76.5755C176.021 76.5755 175.744 76.6758 175.54 76.8762C175.34 77.0767 175.211 77.3609 175.156 77.729H177.453ZM175.131 78.4634C175.151 78.7231 175.197 78.9482 175.269 79.1388C175.341 79.3261 175.437 79.4822 175.555 79.607C175.673 79.7286 175.813 79.8206 175.974 79.8831C176.138 79.9422 176.319 79.9718 176.516 79.9718C176.713 79.9718 176.882 79.9488 177.024 79.9028C177.168 79.8568 177.293 79.8059 177.398 79.75C177.507 79.6941 177.6 79.6432 177.679 79.5972C177.762 79.5512 177.84 79.5282 177.916 79.5282C178.018 79.5282 178.093 79.566 178.143 79.6415L178.493 80.0852C178.358 80.2429 178.207 80.376 178.039 80.4845C177.872 80.5896 177.696 80.6751 177.512 80.7408C177.331 80.8032 177.145 80.8476 176.955 80.8739C176.767 80.9002 176.585 80.9133 176.408 80.9133C176.056 80.9133 175.729 80.8558 175.427 80.7408C175.124 80.6225 174.861 80.45 174.638 80.2232C174.415 79.9932 174.239 79.7106 174.111 79.3754C173.982 79.0369 173.918 78.6458 173.918 78.2022C173.918 77.8571 173.974 77.5335 174.086 77.2311C174.198 76.9255 174.357 76.661 174.564 76.4375C174.774 76.2108 175.029 76.0317 175.328 75.9002C175.63 75.7688 175.971 75.703 176.348 75.703C176.667 75.703 176.961 75.754 177.231 75.8559C177.5 75.9577 177.732 76.1072 177.926 76.3044C178.12 76.4983 178.271 76.7382 178.379 77.0241C178.491 77.3067 178.547 77.6304 178.547 77.9952C178.547 78.1792 178.527 78.3041 178.488 78.3698C178.448 78.4322 178.373 78.4634 178.261 78.4634H175.131Z" fill="#004377"/>
<path d="M184.289 75.7819L182.283 80.8394H181.179L179.173 75.7819H180.178C180.27 75.7819 180.346 75.8033 180.405 75.846C180.468 75.8887 180.509 75.9429 180.528 76.0087L181.504 78.7099C181.557 78.8676 181.603 79.0221 181.642 79.1733C181.682 79.3244 181.716 79.4756 181.746 79.6268C181.779 79.4756 181.815 79.3244 181.854 79.1733C181.894 79.0221 181.941 78.8676 181.997 78.7099L182.993 76.0087C183.016 75.9429 183.057 75.8887 183.116 75.846C183.175 75.8033 183.246 75.7819 183.328 75.7819H184.289Z" fill="#004377"/>
<path d="M188.437 77.729C188.437 77.5712 188.414 77.4234 188.368 77.2853C188.325 77.144 188.259 77.0208 188.171 76.9156C188.082 76.8105 187.969 76.7283 187.831 76.6692C187.696 76.6067 187.538 76.5755 187.357 76.5755C187.006 76.5755 186.728 76.6758 186.524 76.8762C186.324 77.0767 186.196 77.3609 186.14 77.729H188.437ZM186.115 78.4634C186.135 78.7231 186.181 78.9482 186.253 79.1388C186.325 79.3261 186.421 79.4822 186.539 79.607C186.657 79.7286 186.797 79.8206 186.958 79.8831C187.122 79.9422 187.303 79.9718 187.5 79.9718C187.697 79.9718 187.867 79.9488 188.008 79.9028C188.153 79.8568 188.277 79.8059 188.383 79.75C188.491 79.6941 188.585 79.6432 188.664 79.5972C188.746 79.5512 188.825 79.5282 188.9 79.5282C189.002 79.5282 189.078 79.566 189.127 79.6415L189.477 80.0852C189.342 80.2429 189.191 80.376 189.023 80.4845C188.856 80.5896 188.68 80.6751 188.496 80.7408C188.315 80.8032 188.13 80.8476 187.939 80.8739C187.752 80.9002 187.569 80.9133 187.392 80.9133C187.04 80.9133 186.713 80.8558 186.411 80.7408C186.109 80.6225 185.846 80.45 185.622 80.2232C185.399 79.9932 185.223 79.7106 185.095 79.3754C184.967 79.0369 184.903 78.6458 184.903 78.2022C184.903 77.8571 184.958 77.5335 185.07 77.2311C185.182 76.9255 185.341 76.661 185.548 76.4375C185.759 76.2108 186.013 76.0317 186.312 75.9002C186.615 75.7688 186.955 75.703 187.333 75.703C187.651 75.703 187.946 75.754 188.215 75.8559C188.484 75.9577 188.716 76.1072 188.91 76.3044C189.104 76.4983 189.255 76.7382 189.364 77.0241C189.475 77.3067 189.531 77.6304 189.531 77.9952C189.531 78.1792 189.511 78.3041 189.472 78.3698C189.433 78.4322 189.357 78.4634 189.245 78.4634H186.115Z" fill="#004377"/>
<path d="M192.072 73.5144V80.8394H190.854V73.5144H192.072Z" fill="#004377"/>
<path d="M195.917 75.703C196.291 75.703 196.632 75.7638 196.937 75.8854C197.246 76.007 197.509 76.1795 197.726 76.403C197.946 76.6265 198.115 76.8992 198.234 77.2213C198.352 77.5433 198.411 77.9031 198.411 78.3008C198.411 78.7017 198.352 79.0632 198.234 79.3852C198.115 79.7073 197.946 79.9817 197.726 80.2084C197.509 80.4352 197.246 80.6093 196.937 80.7309C196.632 80.8525 196.291 80.9133 195.917 80.9133C195.539 80.9133 195.195 80.8525 194.887 80.7309C194.578 80.6093 194.313 80.4352 194.093 80.2084C193.876 79.9817 193.707 79.7073 193.585 79.3852C193.467 79.0632 193.408 78.7017 193.408 78.3008C193.408 77.9031 193.467 77.5433 193.585 77.2213C193.707 76.8992 193.876 76.6265 194.093 76.403C194.313 76.1795 194.578 76.007 194.887 75.8854C195.195 75.7638 195.539 75.703 195.917 75.703ZM195.917 79.9767C196.337 79.9767 196.648 79.8354 196.848 79.5528C197.052 79.2702 197.154 78.8561 197.154 78.3106C197.154 77.7651 197.052 77.3494 196.848 77.0635C196.648 76.7776 196.337 76.6347 195.917 76.6347C195.49 76.6347 195.172 76.7793 194.965 77.0685C194.762 77.3544 194.66 77.7684 194.66 78.3106C194.66 78.8529 194.762 79.2669 194.965 79.5528C195.172 79.8354 195.49 79.9767 195.917 79.9767Z" fill="#004377"/>
<path d="M200.952 79.5282C201.09 79.6958 201.239 79.8141 201.4 79.8831C201.565 79.9521 201.742 79.9866 201.933 79.9866C202.117 79.9866 202.283 79.9521 202.431 79.8831C202.578 79.8141 202.703 79.7089 202.805 79.5676C202.91 79.4263 202.991 79.2488 203.047 79.0352C203.103 78.8184 203.131 78.5637 203.131 78.2712C203.131 77.9754 203.106 77.7257 203.057 77.522C203.011 77.3149 202.943 77.1473 202.854 77.0192C202.766 76.891 202.657 76.7973 202.529 76.7382C202.404 76.679 202.261 76.6495 202.1 76.6495C201.847 76.6495 201.632 76.7037 201.455 76.8121C201.277 76.9173 201.11 77.0668 200.952 77.2607V79.5282ZM200.888 76.472C201.095 76.2387 201.33 76.0497 201.593 75.9051C201.855 75.7605 202.164 75.6883 202.519 75.6883C202.795 75.6883 203.047 75.7458 203.273 75.8608C203.504 75.9758 203.701 76.1434 203.865 76.3636C204.033 76.5805 204.161 76.8499 204.249 77.172C204.341 77.4907 204.387 77.8571 204.387 78.2712C204.387 78.6491 204.337 78.9991 204.235 79.3211C204.133 79.6432 203.987 79.9225 203.796 80.1591C203.609 80.3957 203.38 80.5814 203.111 80.7161C202.845 80.8476 202.546 80.9133 202.214 80.9133C201.931 80.9133 201.69 80.8706 201.489 80.7851C201.289 80.6964 201.11 80.5748 200.952 80.4204V82.4907H199.734V75.7819H200.479C200.636 75.7819 200.74 75.8559 200.789 76.0037L200.888 76.472Z" fill="#004377"/>
<path d="M205.732 80.8394V75.7819H206.476C206.634 75.7819 206.737 75.8559 206.787 76.0037L206.866 76.3784C206.954 76.2798 207.046 76.1894 207.142 76.1072C207.24 76.0251 207.344 75.9544 207.452 75.8953C207.564 75.8361 207.682 75.7901 207.807 75.7573C207.935 75.7211 208.075 75.703 208.226 75.703C208.545 75.703 208.806 75.7901 209.01 75.9643C209.217 76.1352 209.371 76.3636 209.473 76.6495C209.552 76.4819 209.651 76.3389 209.769 76.2206C209.887 76.099 210.017 76.0004 210.158 75.9249C210.3 75.8493 210.449 75.7934 210.607 75.7573C210.768 75.7211 210.929 75.703 211.09 75.703C211.369 75.703 211.617 75.7458 211.834 75.8312C212.051 75.9166 212.234 76.0415 212.381 76.2058C212.529 76.3701 212.641 76.5706 212.717 76.8072C212.795 77.0438 212.835 77.3149 212.835 77.6205V80.8394H211.617V77.6205C211.617 77.2985 211.547 77.057 211.405 76.8959C211.264 76.7316 211.057 76.6495 210.784 76.6495C210.659 76.6495 210.543 76.6708 210.434 76.7135C210.329 76.7563 210.236 76.8187 210.153 76.9009C210.075 76.9797 210.012 77.08 209.966 77.2015C209.92 77.3231 209.897 77.4628 209.897 77.6205V80.8394H208.675V77.6205C208.675 77.2821 208.606 77.0356 208.468 76.8811C208.333 76.7267 208.134 76.6495 207.871 76.6495C207.694 76.6495 207.528 76.6938 207.373 76.7826C207.222 76.868 207.081 76.9863 206.949 77.1375V80.8394H205.732Z" fill="#004377"/>
<path d="M217.645 77.729C217.645 77.5712 217.622 77.4234 217.576 77.2853C217.533 77.144 217.467 77.0208 217.379 76.9156C217.29 76.8105 217.177 76.7283 217.039 76.6692C216.904 76.6067 216.746 76.5755 216.565 76.5755C216.214 76.5755 215.936 76.6758 215.732 76.8762C215.532 77.0767 215.404 77.3609 215.348 77.729H217.645ZM215.323 78.4634C215.343 78.7231 215.389 78.9482 215.461 79.1388C215.533 79.3261 215.629 79.4822 215.747 79.607C215.865 79.7286 216.005 79.8206 216.166 79.8831C216.33 79.9422 216.511 79.9718 216.708 79.9718C216.905 79.9718 217.075 79.9488 217.216 79.9028C217.361 79.8568 217.485 79.8059 217.591 79.75C217.699 79.6941 217.793 79.6432 217.872 79.5972C217.954 79.5512 218.033 79.5282 218.108 79.5282C218.21 79.5282 218.286 79.566 218.335 79.6415L218.685 80.0852C218.55 80.2429 218.399 80.376 218.231 80.4845C218.064 80.5896 217.888 80.6751 217.704 80.7408C217.523 80.8032 217.338 80.8476 217.147 80.8739C216.96 80.9002 216.777 80.9133 216.6 80.9133C216.248 80.9133 215.921 80.8558 215.619 80.7408C215.317 80.6225 215.054 80.45 214.83 80.2232C214.607 79.9932 214.431 79.7106 214.303 79.3754C214.175 79.0369 214.111 78.6458 214.111 78.2022C214.111 77.8571 214.166 77.5335 214.278 77.2311C214.39 76.9255 214.549 76.661 214.756 76.4375C214.967 76.2108 215.221 76.0317 215.52 75.9002C215.823 75.7688 216.163 75.703 216.541 75.703C216.859 75.703 217.154 75.754 217.423 75.8559C217.692 75.9577 217.924 76.1072 218.118 76.3044C218.312 76.4983 218.463 76.7382 218.572 77.0241C218.683 77.3067 218.739 77.6304 218.739 77.9952C218.739 78.1792 218.719 78.3041 218.68 78.3698C218.641 78.4322 218.565 78.4634 218.453 78.4634H215.323Z" fill="#004377"/>
<path d="M221.186 76.403C221.288 76.3011 221.395 76.2075 221.506 76.122C221.621 76.0333 221.741 75.9594 221.866 75.9002C221.994 75.8378 222.131 75.7901 222.275 75.7573C222.42 75.7211 222.578 75.703 222.748 75.703C223.024 75.703 223.269 75.7507 223.483 75.846C223.696 75.938 223.874 76.0695 224.015 76.2403C224.16 76.4079 224.268 76.61 224.341 76.8466C224.416 77.08 224.454 77.3379 224.454 77.6205V80.8394H223.236V77.6205C223.236 77.3116 223.166 77.0734 223.024 76.9058C222.883 76.7349 222.668 76.6495 222.379 76.6495C222.168 76.6495 221.971 76.6971 221.787 76.7924C221.603 76.8877 221.429 77.0175 221.265 77.1818V80.8394H220.047V75.7819H220.791C220.949 75.7819 221.053 75.8559 221.102 76.0037L221.186 76.403Z" fill="#004377"/>
<path d="M227.625 80.9182C227.184 80.9182 226.846 80.795 226.609 80.5485C226.376 80.2988 226.259 79.9554 226.259 79.5183V76.6938H225.742C225.676 76.6938 225.62 76.6725 225.574 76.6297C225.528 76.587 225.505 76.5229 225.505 76.4375V75.9544L226.318 75.8213L226.575 74.4411C226.591 74.3754 226.622 74.3245 226.668 74.2883C226.714 74.2522 226.774 74.2341 226.846 74.2341H227.477V75.8263H228.827V76.6938H227.477V79.4345C227.477 79.5923 227.515 79.7155 227.59 79.8042C227.669 79.8929 227.776 79.9373 227.911 79.9373C227.986 79.9373 228.049 79.9291 228.098 79.9127C228.15 79.8929 228.195 79.8732 228.231 79.8535C228.27 79.8338 228.305 79.8157 228.334 79.7993C228.364 79.7796 228.394 79.7697 228.423 79.7697C228.459 79.7697 228.489 79.7796 228.512 79.7993C228.535 79.8157 228.56 79.842 228.586 79.8782L228.951 80.4697C228.773 80.6175 228.569 80.7293 228.339 80.8049C228.109 80.8804 227.871 80.9182 227.625 80.9182Z" fill="#004377"/>
<path d="M133.586 30.3757H126.225C126.091 29.4235 125.817 28.5777 125.402 27.8383C124.988 27.0877 124.455 26.4491 123.806 25.9226C123.156 25.396 122.405 24.9927 121.554 24.7126C120.714 24.4326 119.801 24.2925 118.815 24.2925C117.033 24.2925 115.482 24.7351 114.16 25.6201C112.838 26.4939 111.813 27.771 111.085 29.4515C110.356 31.1207 109.992 33.1485 109.992 35.5347C109.992 37.9881 110.356 40.0495 111.085 41.7187C111.824 43.3879 112.855 44.6483 114.177 45.4997C115.499 46.3511 117.028 46.7768 118.764 46.7768C119.739 46.7768 120.641 46.648 121.47 46.3903C122.31 46.1327 123.055 45.7574 123.705 45.2644C124.355 44.7603 124.892 44.1497 125.318 43.4328C125.755 42.7158 126.057 41.898 126.225 40.9793L133.586 41.0129C133.395 42.5925 132.919 44.1161 132.157 45.5837C131.407 47.0401 130.393 48.3452 129.116 49.4991C127.85 50.6418 126.337 51.5493 124.579 52.2215C122.831 52.8824 120.854 53.2129 118.647 53.2129C115.577 53.2129 112.832 52.5183 110.412 51.1292C108.004 49.74 106.099 47.7291 104.699 45.0964C103.31 42.4637 102.615 39.2765 102.615 35.5347C102.615 31.7817 103.321 28.5889 104.733 25.9562C106.144 23.3235 108.06 21.3182 110.48 19.9402C112.9 18.551 115.622 17.8564 118.647 17.8564C120.641 17.8564 122.489 18.1365 124.192 18.6967C125.906 19.2568 127.424 20.0746 128.746 21.1501C130.068 22.2144 131.144 23.5195 131.973 25.0655C132.813 26.6115 133.35 28.3816 133.586 30.3757Z" fill="#004377"/>
<path d="M140.696 52.7424V18.327H154.274C156.873 18.327 159.092 18.7919 160.929 19.7217C162.777 20.6404 164.183 21.9455 165.147 23.6372C166.121 25.3176 166.609 27.2949 166.609 29.5691C166.609 31.8545 166.116 33.8206 165.13 35.4675C164.144 37.1031 162.716 38.3578 160.845 39.2317C158.985 40.1055 156.733 40.5424 154.089 40.5424H144.998V34.6945H152.913C154.302 34.6945 155.456 34.504 156.375 34.1231C157.294 33.7422 157.977 33.1709 158.425 32.4091C158.884 31.6473 159.114 30.7006 159.114 29.5691C159.114 28.4264 158.884 27.463 158.425 26.6788C157.977 25.8946 157.288 25.3008 156.358 24.8975C155.439 24.483 154.28 24.2757 152.88 24.2757H147.973V52.7424H140.696ZM159.282 37.0807L167.835 52.7424H159.803L151.434 37.0807H159.282Z" fill="#004377"/>
<path d="M173.644 52.7424V18.327H196.834V24.3261H180.92V32.5267H195.641V38.5259H180.92V46.7432H196.901V52.7424H173.644Z" fill="#004377"/>
<path d="M216.712 52.7424H204.512V18.327H216.812C220.274 18.327 223.254 19.0159 225.752 20.3939C228.251 21.7607 230.172 23.7268 231.516 26.2923C232.872 28.8577 233.55 31.9273 233.55 35.5011C233.55 39.086 232.872 42.1668 231.516 44.7435C230.172 47.3202 228.239 49.2975 225.719 50.6755C223.209 52.0534 220.207 52.7424 216.712 52.7424ZM211.788 46.508H216.409C218.56 46.508 220.369 46.1271 221.837 45.3653C223.316 44.5923 224.425 43.3991 225.164 41.7859C225.915 40.1615 226.29 38.0665 226.29 35.5011C226.29 32.958 225.915 30.8799 225.164 29.2666C224.425 27.6534 223.321 26.4659 221.854 25.7041C220.386 24.9423 218.577 24.5614 216.426 24.5614H211.788V46.508Z" fill="#004377"/>
<path d="M59.6913 5.76426C60.3127 6.21882 61.5412 7.28837 62.4217 8.14137C63.7409 9.41993 64.0222 9.93926 64.0222 11.0962C64.0222 13.5452 62.2748 15.3853 59.0323 16.3505C57.9081 16.6853 58.325 17.0864 61.3197 18.5525C64.7747 20.2438 69.0838 23.759 71.8235 27.1213C74.2522 30.1014 77.2997 36.168 78.1587 39.7314C82.1123 56.1347 74.9207 71.7682 59.4812 80.3359C56.3332 82.0829 49.9415 84.1817 46.1751 84.7056C42.0762 85.2757 36.0667 85.211 32.3105 84.556C27.2279 83.6695 19.5321 80.7912 16.4707 78.6317C15.8982 78.228 15.2335 77.9629 14.994 78.0427C14.3854 78.2453 20.2683 82.4704 23.7191 84.309C35.6318 90.6562 51.0144 90.8671 63.0807 84.8483C71.8947 80.4519 77.627 74.923 82.4467 66.1685C83.9847 63.3749 86.0274 57.1342 86.6281 53.3938C87.2985 49.2165 86.9109 39.5036 85.9171 35.5888C82.6004 22.5226 74.3566 12.2267 62.5384 6.39093C59.2255 4.75497 57.9183 4.46725 59.6913 5.76426Z" fill="#004377"/>
<path d="M40.2964 2.74542V5.49085L35.8299 6.09981C15.0742 8.92922 0 25.7283 0 46.0297C0 59.9177 7.24054 71.9384 19.6774 78.698C22.9098 80.4549 23.4634 80.3219 20.9134 78.4016C14.1967 73.3428 9.25159 66.1101 7.0914 58.1849C5.91754 53.8789 5.9149 45.5635 7.08576 41.2379C8.11275 37.4432 10.7121 32.1859 13.1554 28.9614C18.6836 21.6659 28.0131 16.5106 36.7228 15.9385L40.2964 15.7035V18.7732C40.2964 20.4615 40.453 21.8429 40.6443 21.8429C40.8356 21.8429 44.2676 19.7607 48.2705 17.2156C52.2734 14.6709 56.1264 12.2301 56.8329 11.7918L58.1171 10.9949L53.6318 8.07358C45.7153 2.91716 41.0273 0 40.6571 0C40.4587 0 40.2964 1.23525 40.2964 2.74542Z" fill="#FFB341"/>
<path d="M11.5696 35.8713C9.67602 39.6855 9.29113 41.8472 9.54383 47.2503C9.55466 47.4822 9.56503 47.7064 9.57506 47.9231C9.76628 52.0572 9.83231 53.4849 10.5443 53.976C10.9199 54.2351 11.4753 54.2335 12.3236 54.2311C12.4082 54.2309 12.4956 54.2306 12.586 54.2306C15.4727 54.2306 17.9379 55.3642 20.312 57.7835L21.9717 59.4744L23.4148 58.1706C25.1543 56.599 26.4657 56.4974 28.3664 57.7868C29.3907 58.4824 30.0336 58.6568 30.9966 58.5005C32.7135 58.2218 34.5159 59.2021 35.2962 60.8381C35.8404 61.9792 36.0897 62.1392 37.3242 62.1392C39.0283 62.1392 40.8854 63.547 41.2258 65.0967C41.393 65.8589 41.8653 66.3308 42.9314 66.8008C43.7419 67.1586 44.7971 67.9084 45.2758 68.4673C45.7544 69.0258 47.3094 70.3725 48.7315 71.4601C50.8344 73.0682 51.5925 73.4373 52.7909 73.4373C55.4361 73.4373 57.1071 70.6531 55.4467 69.0122C55.0802 68.6495 52.618 66.7447 49.9754 64.7788C47.3328 62.8134 45.3311 61.1514 45.527 61.0863C45.7224 61.0211 47.8035 62.3878 50.1509 64.1239C56.9421 69.1459 57.4133 69.4174 58.8685 69.1444C60.7439 68.7923 61.8402 67.4486 61.6937 65.6812C61.5792 64.3024 61.348 64.0761 56.2142 60.3195C53.2661 58.1623 50.944 56.2522 51.0536 56.0748C51.1632 55.8974 52.9818 57.0743 55.0953 58.6896C57.2088 60.3052 59.7561 62.2507 60.756 63.0129C63.791 65.3272 66.8091 64.6003 66.8091 61.5551C66.8091 60.3707 66.5824 59.9399 65.5098 59.0842C51.3432 47.7873 46.3672 43.8967 45.6908 43.5878C44.3776 42.9883 43.2143 43.5152 39.6723 46.3148C35.8317 49.3506 34.4639 50.0902 32.7075 50.082C29.6555 50.0669 26.6329 46.8869 27.5006 44.6039C27.722 44.0217 29.7594 41.6291 32.0284 39.2871C34.2975 36.945 36.1537 34.7735 36.1537 34.4613C36.1537 33.9683 34.6131 33.8941 24.3526 33.8941H12.551L11.5696 35.8713Z" fill="#004377"/>
<path fill-rule="evenodd" clip-rule="evenodd" d="M35.1181 38.2695C40.3506 32.962 41.4288 32.0397 42.556 31.9087C46.5781 31.4402 53.0436 31.6711 56.0432 32.3904C59.781 33.2863 62.9158 33.3401 66.9078 32.576C68.5313 32.2653 70.0509 32.0111 70.2844 32.0111C70.9875 32.0111 73.3435 35.8103 74.146 38.2394C75.1798 41.3663 75.4457 45.4825 74.8631 49.3348C74.3852 52.4945 74.3641 52.5374 73.249 52.6391C71.0549 52.8398 70.4651 53.1181 68.2903 54.9797C67.0821 56.0138 65.9045 56.8615 65.6733 56.8634C65.3754 56.8657 51.0687 45.6863 48.9894 43.8262C48.6931 43.5607 49.2986 43.2214 50.5113 42.9732C53.6303 42.3356 50.9658 41.4352 45.9454 41.4307C43.5005 41.4288 42.8644 41.7783 38.4133 45.5688C36.6527 47.0684 34.7904 48.4554 34.2745 48.6516C32.0518 49.4967 28.9983 47.7342 28.9983 45.6057C28.9983 44.6525 29.9511 43.5103 35.1181 38.2695ZM21.0897 64.441C21.0897 63.6422 23.3986 60.0423 24.5586 59.0323C25.4906 58.2211 25.9576 58.2075 27.0313 58.9596C28.2364 59.8036 28.0741 60.8294 26.3075 63.5413C24.8357 65.7998 23.9244 66.6584 22.9975 66.6584C22.3392 66.6584 21.0897 65.2059 21.0897 64.441ZM25.6089 68.2202C25.6089 67.2693 28.2779 62.4492 29.6536 60.9153C30.5156 59.9542 32.5805 60.0547 33.3078 61.0934C34.2248 62.4021 34.0237 63.2698 32.1493 66.0977C29.8664 69.5421 29.0352 70.4245 28.0749 70.4245C26.7922 70.4245 25.6089 69.367 25.6089 68.2202ZM30.8813 71.3114C30.8813 70.4064 33.6659 65.7569 35.0172 64.4056C36.1575 63.2653 38.2232 63.3816 39.0426 64.6323C39.6678 65.5866 39.6554 65.6838 38.6743 67.551C38.1158 68.6138 37.0184 70.3303 36.2347 71.366C35.1041 72.8607 34.5536 73.2738 33.5638 73.3695C32.0793 73.5134 30.8813 72.5944 30.8813 71.3114ZM37.8353 71.3611C38.5531 70.2388 39.4855 68.9757 39.9069 68.5543C40.328 68.1332 41.0432 67.7883 41.4962 67.7883C42.4889 67.7883 44.0624 69.1802 44.0624 70.058C44.0624 70.9634 40.604 75.4751 39.7902 75.6321C38.5629 75.8682 37.4214 75.3572 36.9713 74.3697C36.5812 73.5137 36.6814 73.165 37.8353 71.3611Z" fill="#FFB341"/>
<path d="M45.8211 70.2975C45.6825 70.4365 45.5688 70.8274 45.5688 71.1664C45.5688 71.5053 45.0521 72.4852 44.4205 73.3439L43.2723 74.9053L44.4017 75.4894C46.1145 76.3748 48.2878 76.2467 49.2693 75.202C49.7197 74.7226 50.088 74.0764 50.088 73.7661C50.088 72.7858 46.3619 69.7567 45.8211 70.2975Z" fill="#004377"/>
</svg>
