<svg width="230" height="223" viewBox="0 0 230 223" fill="none" xmlns="http://www.w3.org/2000/svg">
<g id="Group">
<path id="Vector" opacity="0.2" d="M108.888 222.897C147.361 222.897 178.549 216.501 178.549 208.611C178.549 200.721 147.361 194.325 108.888 194.325C70.4157 194.325 39.2275 200.721 39.2275 208.611C39.2275 216.501 70.4157 222.897 108.888 222.897Z" fill="#3D3D60"/>
<g id="Group_2">
<g id="Group_3">
<path id="Vector_2" d="M103.086 197.904V160.504C103.086 155.338 98.8983 151.15 93.7325 151.15H93.7186C88.5528 151.15 84.3652 155.338 84.3652 160.504V197.904C84.3652 203.07 88.5528 207.258 93.7186 207.258H93.7325C98.8983 207.258 103.086 203.07 103.086 197.904Z" fill="#171759"/>
<path id="Vector_3" d="M80.0823 207.258H93.7188C98.8846 207.258 103.072 203.07 103.072 197.904V197.891C103.072 192.725 98.8846 188.537 93.7188 188.537H80.0823C74.9165 188.537 70.7288 192.725 70.7288 197.891V197.904C70.7288 203.07 74.9165 207.258 80.0823 207.258Z" fill="#171759"/>
</g>
<g id="Group_4">
<path id="Vector_4" d="M133.426 197.904V160.504C133.426 155.338 129.238 151.15 124.072 151.15H124.058C118.893 151.15 114.705 155.338 114.705 160.504V197.904C114.705 203.07 118.893 207.258 124.058 207.258H124.072C129.238 207.258 133.426 203.07 133.426 197.904Z" fill="#171759"/>
<path id="Vector_5" d="M137.695 188.551H124.059C118.893 188.551 114.705 192.739 114.705 197.904V197.918C114.705 203.084 118.893 207.272 124.059 207.272H137.695C142.861 207.272 147.049 203.084 147.049 197.918V197.904C147.049 192.739 142.861 188.551 137.695 188.551Z" fill="#171759"/>
</g>
</g>
<g id="Group_5">
<path id="Vector_6" d="M108.888 174.967C157.204 174.967 196.371 135.799 196.371 87.4834C196.371 39.1677 157.204 0 108.888 0C60.572 0 21.4043 39.1677 21.4043 87.4834C21.4043 135.799 60.572 174.967 108.888 174.967Z" fill="#62657A"/>
<path id="Vector_7" d="M108.888 135.025C135.144 135.025 156.429 113.74 156.429 87.4835C156.429 61.2273 135.144 39.9424 108.888 39.9424C82.6316 39.9424 61.3467 61.2273 61.3467 87.4835C61.3467 113.74 82.6316 135.025 108.888 135.025Z" stroke="#D3D3DD" stroke-width="6.90804" stroke-miterlimit="10"/>
<path id="Vector_8" d="M108.888 123.778C128.933 123.778 145.182 107.528 145.182 87.4833C145.182 67.4382 128.933 51.1885 108.888 51.1885C88.8425 51.1885 72.5928 67.4382 72.5928 87.4833C72.5928 107.528 88.8425 123.778 108.888 123.778Z" fill="#D3D3DD"/>
<path id="Vector_9" opacity="0.2" d="M196.371 87.4824C196.371 135.797 157.203 174.966 108.888 174.966C84.1984 174.966 61.9131 164.742 46.0107 148.287C59.5229 156.825 75.5219 161.771 92.6815 161.771C140.996 161.771 180.151 122.603 180.151 74.288C180.151 50.6625 170.798 29.2199 155.558 13.4834C180.082 28.9712 196.371 56.3271 196.371 87.4824Z" fill="#3D3D60"/>
<g id="Group_6">
<path id="Vector_10" d="M188.054 90.0947C186.728 129.871 156.07 162.215 117.012 166.18" stroke="#4E4E68" stroke-width="6.90804" stroke-miterlimit="10" stroke-linecap="round"/>
<path id="Vector_11" d="M176.048 95.29C172.856 122.715 153.251 145.125 127.318 152.447" stroke="#4E4E68" stroke-width="6.90804" stroke-miterlimit="10" stroke-linecap="round"/>
<g id="Group_7">
<path id="Vector_12" d="M29.7354 84.8723C31.0617 45.0958 61.7196 12.7523 100.778 8.78711" stroke="#4E4E68" stroke-width="6.90804" stroke-miterlimit="10" stroke-linecap="round"/>
<path id="Vector_13" d="M41.7422 79.663C44.9337 52.2381 64.5387 29.8284 90.4715 22.5059" stroke="#4E4E68" stroke-width="6.90804" stroke-miterlimit="10" stroke-linecap="round"/>
</g>
</g>
</g>
<g id="Group_8">
<g id="Group_9">
<path id="Vector_14" d="M92.2119 90.619V87.082C92.2119 83.6712 89.4469 80.9062 86.0361 80.9062C82.6253 80.9062 79.8603 83.6712 79.8603 87.082V90.619C79.8603 94.0298 82.6253 96.7947 86.0361 96.7947C89.4469 96.7947 92.2119 94.0298 92.2119 90.619Z" fill="#171759"/>
<path id="Vector_15" d="M137.93 90.619V87.082C137.93 83.6712 135.165 80.9062 131.754 80.9062C128.343 80.9062 125.578 83.6712 125.578 87.082V90.619C125.578 94.0298 128.343 96.7947 131.754 96.7947C135.165 96.7947 137.93 94.0298 137.93 90.619Z" fill="#171759"/>
</g>
<path id="Vector_16" d="M119.637 96.7949C119.637 102.722 114.829 107.544 108.902 107.544C102.975 107.544 98.167 102.722 98.167 96.7949H119.651H119.637Z" fill="white" stroke="#171759" stroke-width="5.11195" stroke-linecap="round" stroke-linejoin="round"/>
</g>
<path id="Vector_17" d="M215.189 89.0035C223.369 89.0035 230 82.3725 230 74.1927C230 66.0129 223.369 59.3818 215.189 59.3818C207.009 59.3818 200.378 66.0129 200.378 74.1927C200.378 82.3725 207.009 89.0035 215.189 89.0035Z" fill="#171759"/>
<g id="Group_10">
<path id="Vector_18" d="M10.0615 96.8902L0.954102 101.413L30.8201 161.551L39.9275 157.029L10.0615 96.8902Z" fill="#FFBC00"/>
<path id="Vector_19" d="M19.1777 92.3706L10.0703 96.8936L39.9364 157.032L49.0437 152.509L19.1777 92.3706Z" fill="#FFD815"/>
<path id="Vector_20" d="M49.0325 152.527L30.8301 161.566L34.1608 168.273L52.3632 159.233L49.0325 152.527Z" fill="#DBD9E2"/>
<path id="Vector_21" d="M34.1523 168.267L52.3547 159.227L55.2 164.956C56.5642 167.703 55.443 171.037 52.696 172.401L44.4424 176.5C41.6954 177.864 38.3619 176.743 36.9976 173.996L34.1523 168.267Z" fill="#FF558A"/>
<path id="Vector_22" d="M19.1523 92.388L0.942691 101.438L0.445312 91.1998L11.3048 85.8115L19.1523 92.388Z" fill="#FFE7C5"/>
<path id="Vector_23" d="M11.3051 85.8112L0.459454 91.1994L0.0035237 81.7492C-0.107005 79.6077 2.40752 78.3643 4.05164 79.7459L11.3051 85.8112Z" fill="#171759"/>
</g>
<path id="Vector_24" d="M23.6429 167.259C31.8227 167.259 38.4537 160.628 38.4537 152.448C38.4537 144.269 31.8227 137.638 23.6429 137.638C15.4631 137.638 8.83203 144.269 8.83203 152.448C8.83203 160.628 15.4631 167.259 23.6429 167.259Z" fill="#171759"/>
<path id="Vector_25" d="M207.396 34.9682L214.221 36.5847C217.593 37.386 217.593 42.1802 214.221 42.9815L207.396 44.598C206.54 44.8053 205.863 45.4684 205.669 46.325L204.053 53.1502C203.251 56.5213 198.457 56.5213 197.656 53.1502L196.039 46.325C195.832 45.4684 195.169 44.7914 194.312 44.598L187.487 42.9815C184.116 42.1802 184.116 37.386 187.487 36.5847L194.312 34.9682C195.169 34.761 195.846 34.0978 196.039 33.2412L197.656 26.416C198.457 23.0449 203.251 23.0449 204.053 26.416L205.669 33.2412C205.877 34.0978 206.54 34.7748 207.396 34.9682Z" fill="#FFCD40"/>
<path id="Vector_26" d="M176.255 20.0481L178.452 20.5731C180.8 21.1258 180.8 24.4693 178.452 25.0219L176.255 25.5469C175.523 25.7265 174.942 26.293 174.763 27.039L174.238 29.2358C173.685 31.5845 170.342 31.5845 169.789 29.2358L169.264 27.039C169.084 26.3068 168.518 25.7265 167.772 25.5469L165.575 25.0219C163.226 24.4693 163.226 21.1258 165.575 20.5731L167.772 20.0481C168.504 19.8685 169.084 19.302 169.264 18.556L169.789 16.3592C170.342 14.0105 173.685 14.0105 174.238 16.3592L174.763 18.556C174.942 19.2882 175.509 19.8685 176.255 20.0481Z" fill="#FFCD40"/>
</g>
</svg>
